# xmcd
#
# Track frame offsets: 
#        150
#        13952
#        22850
#        36662
#        50245
#        64307
#        75750
#        92150
#        104180
#        115302
#        128737
#        139767
#        156805
#        171977
#        188470
#        198267
#
# Disc length: 2793 seconds
#
# Revision: 6
# Processed by: cddbd v1.5.1PL2 Copyright (c) Steve Scherf et al.
# Submitted via: ExactAudioCopy v0.95b4
#
DISCID=de0ae710
DTITLE=Ella Fitzgerald - Basin Street Blues
DYEAR=1993
DGENRE=Blues
TTITLE0=Basin Street Blues
TTITLE1=Love Come Back To Me
TTITLE2=Starlit Hour
TTITLE3=We Can't Go On This Way
TTITLE4=Stairway To The Stars
TTITLE5=Is There Somebody Else
TTITLE6=It's A Blue World
TTITLE7=Sing Song Swing
TTITLE8=That Old Black Magic
TTITLE9=Sugar Blues
TTITLE10=Flying Home
TTITLE11=Who Ya Hunchin'
TTITLE12=Chewing Gum
TTITLE13=Goin' And Gettin' It
TTITLE14=I Wanna Be A Rug Cutter
TTITLE15=A-Tisket, A-Tasket
EXTD=YEAR: 2001
EXTT0=
EXTT1=
EXTT2=
EXTT3=
EXTT4=
EXTT5=
EXTT6=
EXTT7=
EXTT8=
EXTT9=
EXTT10=
EXTT11=
EXTT12=
EXTT13=
EXTT14=
EXTT15=
PLAYORDER=
